<?xml version="1.0" encoding="UTF-8" standalone="no"?>
<!DOCTYPE svg PUBLIC "-//W3C//DTD SVG 1.1//EN" "http://www.w3.org/Graphics/SVG/1.1/DTD/svg11.dtd">
<svg width="100%" height="100%" viewBox="0 0 256 256" version="1.1" xmlns="http://www.w3.org/2000/svg" xmlns:xlink="http://www.w3.org/1999/xlink" xml:space="preserve" xmlns:serif="http://www.serif.com/" style="fill-rule:evenodd;clip-rule:evenodd;stroke-linejoin:round;stroke-miterlimit:2;">
    <path d="M256,48.724L256,207.276C256,234.168 234.168,256 207.276,256L48.724,256C21.832,256 0,234.168 0,207.276L0,48.724C0,21.832 21.832,0 48.724,0L207.276,0C234.168,0 256,21.832 256,48.724Z" style="fill:rgb(255,185,0);"/>
    <g transform="matrix(17.8439,0,0,17.8439,-749.216,-1713.37)">
        <g transform="matrix(12,0,0,12,43.5698,107.559)">
            <path d="M0.066,-0L0.066,-0.728L0.295,-0.728L0.412,-0.394C0.417,-0.378 0.423,-0.358 0.429,-0.333C0.436,-0.308 0.442,-0.282 0.449,-0.253C0.455,-0.224 0.461,-0.196 0.467,-0.169C0.473,-0.143 0.477,-0.119 0.481,-0.099L0.452,-0.099C0.456,-0.119 0.461,-0.142 0.466,-0.169C0.472,-0.195 0.478,-0.223 0.484,-0.252C0.491,-0.281 0.497,-0.307 0.504,-0.333C0.51,-0.358 0.516,-0.378 0.521,-0.394L0.637,-0.728L0.866,-0.728L0.866,-0L0.716,-0L0.716,-0.343C0.716,-0.359 0.717,-0.379 0.717,-0.402C0.718,-0.426 0.718,-0.452 0.719,-0.479C0.72,-0.507 0.721,-0.534 0.721,-0.562C0.722,-0.59 0.722,-0.616 0.722,-0.641L0.732,-0.641C0.726,-0.614 0.719,-0.586 0.711,-0.557C0.704,-0.529 0.696,-0.501 0.689,-0.474C0.681,-0.447 0.674,-0.422 0.667,-0.399C0.66,-0.377 0.654,-0.358 0.649,-0.343L0.529,-0L0.403,-0L0.281,-0.343C0.276,-0.358 0.27,-0.376 0.263,-0.399C0.257,-0.421 0.249,-0.446 0.241,-0.473C0.234,-0.499 0.226,-0.527 0.218,-0.556C0.211,-0.585 0.203,-0.613 0.196,-0.641L0.208,-0.641C0.208,-0.618 0.209,-0.592 0.209,-0.564C0.21,-0.537 0.212,-0.428 0.213,-0.404C0.214,-0.38 0.214,-0.359 0.214,-0.343L0.214,-0L0.066,-0Z" style="fill:rgb(123,51,6);fill-rule:nonzero;"/>
        </g>
        <g transform="matrix(12,0,0,12,54.7514,107.559)">
        </g>
    </g>
</svg>
